# xmcd
# Copyright (C) 1995-1998 Ti Kan
#
# Track frame offsets:
#       150
#       15951
#       31121
#       45192
#       59494
#       78071
#       91314
#       108542
#       123050
#       138923
#       156173
#       171201
#       190192
#       204504
#
# Disc length: 2978 seconds
#
# Revision: 13
# Processed by: cddbd v1.5.1PL0 Copyright (c) Steve Scherf et al.
# Submitted via: CD-Transfer v1.0
#
DISCID=a00ba00e
DTITLE=Mousse T. Ft. Roachford - Euro Express 579
DYEAR=04
DGENRE=
TTITLE0=Un Gaou A Oran
TTITLE1=F**k Me Pumps (Lyrics!)
TTITLE2=Deep Inside Your Head
TTITLE3=L'jour D'apres
TTITLE4=Flawless (Sharp Radio Edit)lyrics!
TTITLE5=American Idiot
TTITLE6=I Like That (Radio Edit No Intro Squeaky Clean)
TTITLE7=Ma Revolution (Single Vers.)
TTITLE8=Bye Bye Bye (Radio Edit)
TTITLE9=Abdel Kader (Radio Edit)
TTITLE10=Palmares
TTITLE11=Ensorlee (Radio Edit)
TTITLE12=Happy (Spiritual South Happy In Rio Radio Edit)
TTITLE13=Pop Muzak
EXTD=
EXTT0=
EXTT1=
EXTT2=
EXTT3=
EXTT4=
EXTT5=
EXTT6=
EXTT7=
EXTT8=
EXTT9=
EXTT10=
EXTT11=
EXTT12=
EXTT13=
PLAYORDER=
